<svg width="318" height="422" viewBox="0 0 318 422" fill="none" xmlns="http://www.w3.org/2000/svg">
  <g filter="url(#filter0_i_4473_42762)">
    <path d="M108.455 126.875C114.332 116.687 121.158 112.443 128.09 112.031C142.149 111.1 173.582 134.271 163.637 148.03L182.268 180.56C194.17 190.544 206.223 198.407 218.573 203.629C216.265 213.302 221.639 216.768 227.061 220.181C219.83 207.511 233.989 200.474 241.62 213.045C249.504 224.112 251.615 235.596 246.893 244.543C239.913 257.939 221.184 267.867 212.696 280.333C229.976 264.663 253.221 266.422 262.411 248.213C268.134 236.937 253.824 203.527 247.146 192.251C236.8 174.925 223.896 179.941 222.438 185.528C208.73 178.027 196.528 166.131 184.074 156.199C189.899 151.081 193.215 143.684 186.841 139.7C173.783 131.427 158.619 106.704 138.935 101.891C136.975 101.406 134.979 101.143 132.996 101.143C122.736 101.143 112.702 108.108 108.455 126.875" fill="#B1B1B1"/>
    <path d="M142.048 422C157.506 422 172.573 419.922 186.854 416.067C98.9366 439.721 45.1981 338.972 112.02 268.126C87.4143 261.456 71.6002 236.628 73.154 206.991C-59.6109 304.434 3.35938 422 142.048 422V422ZM186.88 416.059C187.018 416.022 187.153 415.987 187.291 415.949C187.156 415.984 187.015 416.024 186.88 416.059ZM186.854 416.067C186.864 416.065 186.87 416.062 186.88 416.059C186.872 416.062 186.862 416.065 186.854 416.067Z" fill="url(#paint0_linear_4473_42762)"/>
    <path d="M158.466 99.9793C164.194 103.703 169.564 108.668 174.535 113.684C221.085 103.497 191.658 58.3928 215.861 40.7578C185.282 51.4117 204.513 101.373 158.466 99.9793" fill="url(#paint1_linear_4473_42762)"/>
    <path d="M82.2944 136.547L108.454 126.874C102.078 74.1166 174.587 52.7041 150.082 1.10673e-05C149.028 59.6852 76.4175 61.0311 82.2944 136.547Z" fill="url(#paint2_linear_4473_42762)"/>
    <path d="M148.526 251.06C161.529 245.06 174.486 236.937 187.491 240.765C173.228 231.406 155.707 235.905 138.029 237.146C114.279 238.8 90.1782 236.73 73.1538 206.991C80.3868 244.593 113.879 267.041 148.526 251.06" fill="url(#paint3_linear_4473_42762)"/>
    <path d="M138.985 59.5828C124.17 79.4456 105.04 98.6865 108.455 126.874C113.525 104.477 126.835 98.8903 138.935 101.89C158.62 106.703 173.783 131.426 186.841 139.699C193.215 143.683 189.899 151.08 184.074 156.197C196.528 166.13 208.73 178.025 222.438 185.527C223.896 179.94 236.8 174.924 247.146 192.25C253.825 203.526 268.134 236.936 262.411 248.212C253.221 266.421 229.976 264.662 212.696 280.332C202.153 260.783 181.066 255.815 159.723 252.662C168.411 245.989 177.247 239.989 187.492 240.764C174.486 236.936 161.53 245.059 148.526 251.059C113.879 267.04 80.3871 244.593 73.1541 206.99C71.6003 236.628 87.4144 261.455 112.021 268.126C45.0863 339.089 99.1163 440.053 187.291 415.949C262.513 395.362 318 324.763 318 240.764C318 166.286 274.36 102.306 211.996 74.4269C214.859 90.9253 218.474 106.855 189.6 128.683C180.511 120.82 170.368 107.686 158.466 99.9787C185.331 100.807 189.951 84.1505 195.274 68.0141C178.122 62.403 160.215 59.5533 142.217 59.5533C141.14 59.5533 140.062 59.564 138.985 59.5828V59.5828ZM137.73 148.753C141.044 149.423 144.409 152.216 147.472 155.372C152.443 160.492 157.165 161.374 163.187 155.994L182.268 180.559L163.638 148.029C163.388 150.616 161.329 151.235 158.82 151.08C154.453 150.803 148.943 147.667 143.162 147.664C141.369 147.664 139.55 147.967 137.73 148.753ZM227.061 220.18C230.124 214.853 234.289 211.387 241.62 213.044C238.804 208.403 235.098 206.435 231.907 206.435C226.449 206.435 222.498 212.186 227.061 220.18" fill="url(#paint4_linear_4473_42762)"/>
    <path d="M125.427 77.2734C114.831 91.5976 106.094 107.016 108.455 126.876C113.525 104.479 126.835 98.8924 138.935 101.892C158.62 106.705 173.783 131.428 186.841 139.701C193.215 143.685 189.899 151.082 184.074 156.2C196.528 166.132 208.73 178.028 222.438 185.529C223.896 179.942 236.8 174.926 247.146 192.252C253.825 203.528 268.134 236.938 262.411 248.214C253.221 266.423 229.976 264.664 212.696 280.334C202.153 260.785 181.066 255.817 159.723 252.664C168.411 245.991 177.247 239.992 187.492 240.766C174.486 236.938 161.53 245.061 148.526 251.061C113.879 267.042 80.3871 244.595 73.1541 206.992C71.6003 236.63 87.4144 261.458 112.021 268.128C68.4353 314.317 76.1186 373.228 111.115 402.088C209.235 421.948 301.629 344.831 301.629 240.766C301.629 176.529 265.875 120.927 213.704 93.8765C212.749 104.273 207.226 115.393 189.6 128.685C180.511 120.822 170.368 107.688 158.466 99.9809C176.292 100.498 184.376 93.3616 189.298 83.7371C173.986 78.8525 157.979 76.3995 141.96 76.3995C136.442 76.3995 130.922 76.689 125.427 77.2734" fill="#0A0A0A"/>
    <path d="M112.021 268.126C45.0863 339.089 99.1163 440.053 187.291 415.949C86.4124 420.498 96.4042 302.471 160.377 268.903C183.374 272.11 207.072 276.198 218.474 297.297C235.697 281.68 258.944 283.385 268.184 265.177C271.901 257.887 267.182 241.284 261.607 227.419C263.817 235.957 264.668 243.818 262.411 248.212C253.221 266.421 229.976 264.662 212.696 280.332C202.153 260.783 181.066 255.815 159.723 252.662C168.411 245.989 177.247 239.989 187.492 240.764C174.486 236.936 161.529 245.059 148.526 251.059C113.879 267.04 80.3871 244.593 73.1541 206.99C71.6003 236.628 87.4144 261.455 112.021 268.126" fill="#0A0A0A"/>
    <path d="M95.1381 133.514L121.298 128.609C114.921 75.8517 179.938 63.1808 155.205 14.3051C155.205 63.1808 86.5552 62.5321 95.1381 133.514Z" fill="#0A0A0A"/>
  </g>
  <defs>
    <filter id="filter0_i_4473_42762" x="0" y="0" width="322.16" height="438.638" filterUnits="userSpaceOnUse" color-interpolation-filters="sRGB">
      <feFlood flood-opacity="0" result="BackgroundImageFix"/>
      <feBlend mode="normal" in="SourceGraphic" in2="BackgroundImageFix" result="shape"/>
      <feColorMatrix in="SourceAlpha" type="matrix" values="0 0 0 0 0 0 0 0 0 0 0 0 0 0 0 0 0 0 127 0" result="hardAlpha"/>
      <feOffset dx="4.15957" dy="24.9574"/>
      <feGaussianBlur stdDeviation="8.31915"/>
      <feComposite in2="hardAlpha" operator="arithmetic" k2="-1" k3="1"/>
      <feColorMatrix type="matrix" values="0 0 0 0 0 0 0 0 0 0 0 0 0 0 0 0 0 0 0.25 0"/>
      <feBlend mode="normal" in2="shape" result="effect1_innerShadow_4473_42762"/>
    </filter>
    <linearGradient id="paint0_linear_4473_42762" x1="93.6456" y1="422" x2="93.6456" y2="206.991" gradientUnits="userSpaceOnUse">
      <stop offset="0.442708" stop-color="white"/>
      <stop offset="1" stop-color="#D5D5D5"/>
    </linearGradient>
    <linearGradient id="paint1_linear_4473_42762" x1="187.163" y1="113.684" x2="187.163" y2="40.7578" gradientUnits="userSpaceOnUse">
      <stop offset="0.442708" stop-color="white"/>
      <stop offset="1" stop-color="#D5D5D5"/>
    </linearGradient>
    <linearGradient id="paint2_linear_4473_42762" x1="118.558" y1="136.547" x2="118.558" y2="1.52588e-05" gradientUnits="userSpaceOnUse">
      <stop offset="0.442708" stop-color="white"/>
      <stop offset="1" stop-color="#D5D5D5"/>
    </linearGradient>
    <linearGradient id="paint3_linear_4473_42762" x1="130.323" y1="256.276" x2="130.323" y2="206.991" gradientUnits="userSpaceOnUse">
      <stop offset="0.442708" stop-color="white"/>
      <stop offset="1" stop-color="#D5D5D5"/>
    </linearGradient>
    <linearGradient id="paint4_linear_4473_42762" x1="195.525" y1="419.586" x2="195.525" y2="59.5533" gradientUnits="userSpaceOnUse">
      <stop offset="0.442708" stop-color="white"/>
      <stop offset="1" stop-color="#D5D5D5"/>
    </linearGradient>
  </defs>
</svg>
