<svg width="128" height="128" viewBox="0 0 128 128" fill="none" xmlns="http://www.w3.org/2000/svg">
<path d="M50.3536 40.4768C51.9984 37.6281 53.9091 36.4415 55.849 36.326C59.784 36.0659 68.5813 42.545 65.7979 46.3922L71.0121 55.4883C74.3432 58.28 77.7166 60.4787 81.173 61.939C80.5269 64.6437 82.0311 65.613 83.5484 66.5672C81.5248 63.0244 85.4875 61.0567 87.6233 64.5717C89.8297 67.6662 90.4205 70.8777 89.0991 73.3792C87.1454 77.1252 81.9036 79.9011 79.5282 83.3869C84.3643 79.0053 90.8699 79.497 93.442 74.4055C95.0438 71.2525 91.0389 61.9105 89.1698 58.7575C86.2742 53.9126 82.6626 55.3151 82.2547 56.8774C78.418 54.7799 75.0032 51.4537 71.5176 48.6763C73.1478 47.2453 74.0758 45.177 72.2919 44.063C68.6374 41.7497 64.3935 34.8365 58.8843 33.4909C58.3358 33.3552 57.7771 33.2818 57.2221 33.2818C54.3506 33.2818 51.5424 35.2293 50.3536 40.4768Z" fill="#4E4B66"/>
<path d="M59.7556 123C64.0818 123 68.2987 122.419 72.2956 121.341C47.6898 127.955 32.6498 99.7837 51.3516 79.9737C44.465 78.1086 40.039 71.1662 40.4739 62.8789C3.31645 90.1261 20.9402 123 59.7556 123ZM72.3029 121.339C72.3415 121.328 72.3794 121.319 72.418 121.308C72.3801 121.318 72.3408 121.329 72.3029 121.339ZM72.2956 121.341C72.2985 121.34 72.3 121.34 72.3029 121.339C72.3007 121.34 72.2978 121.34 72.2956 121.341Z" fill="#C19CFC"/>
<path d="M64.3505 32.9562C65.9538 33.9975 67.4566 35.3858 68.8479 36.7884C81.876 33.9398 73.6403 21.3278 80.414 16.3967C71.8556 19.3757 77.238 33.346 64.3505 32.9562Z" fill="#C19CFC"/>
<path d="M43.0321 43.1814L50.3536 40.4767C48.5689 25.7245 68.8624 19.7372 62.0042 5.00001C61.7092 21.6892 41.3873 22.0656 43.0321 43.1814Z" fill="#C19CFC"/>
<path d="M61.5686 75.2015C65.2078 73.5238 68.834 71.2524 72.474 72.3229C68.4822 69.7059 63.5783 70.9638 58.6308 71.3109C51.9838 71.7734 45.2385 71.1947 40.4738 62.879C42.4982 73.3934 51.8717 79.6701 61.5686 75.2015Z" fill="#C19CFC"/>
<path d="M58.8982 21.6605C54.752 27.2146 49.398 32.5948 50.3537 40.4765C51.7727 34.214 55.4979 32.6518 58.8844 33.4906C64.3935 34.8362 68.6374 41.7494 72.2919 44.0628C74.0759 45.1767 73.1479 47.245 71.5176 48.676C75.0032 51.4534 78.4181 54.7796 82.2547 56.8771C82.6627 55.3148 86.2743 53.9123 89.1698 58.7572C91.039 61.9102 95.0439 71.2522 93.4421 74.4052C90.8699 79.4967 84.3643 79.005 79.5282 83.3866C76.5773 77.9202 70.6755 76.5311 64.7024 75.6495C67.1339 73.7837 69.6069 72.106 72.4741 72.3227C68.8341 71.2522 65.2079 73.5236 61.5686 75.2013C51.8717 79.6699 42.4982 73.3932 40.4739 62.8787C40.039 71.166 44.465 78.1084 51.3516 79.9735C32.6185 99.8164 47.7401 128.048 72.418 121.308C93.4705 115.551 109 95.8104 109 72.3227C109 51.4969 96.7863 33.6068 79.3323 25.8113C80.1336 30.4246 81.1453 34.8789 73.0641 40.9825C70.5204 38.7838 67.6817 35.1113 64.3505 32.9561C71.8694 33.1877 73.1624 28.5302 74.6521 24.0181C69.8517 22.4491 64.8401 21.6523 59.8029 21.6523C59.5014 21.6523 59.1998 21.6553 58.8982 21.6605ZM58.5471 46.5943C59.4744 46.7817 60.4163 47.5628 61.2736 48.4451C62.6649 49.877 63.9863 50.1236 65.6719 48.6191L71.0121 55.488L65.7979 46.3919C65.728 47.1153 65.1518 47.2884 64.4496 47.245C63.2273 47.1678 61.6852 46.2907 60.0673 46.2899C59.5655 46.2899 59.0563 46.3746 58.5471 46.5943ZM83.5485 66.5669C84.4058 65.0774 85.5713 64.1081 87.6233 64.5714C86.8351 63.2738 85.7979 62.7235 84.9048 62.7235C83.3773 62.7235 82.2715 64.3315 83.5485 66.5669Z" fill="#C19CFC"/>
<path d="M55.1038 26.6073C52.1383 30.6126 49.693 34.9238 50.3537 40.4771C51.7727 34.2146 55.4979 32.6524 58.8844 33.4912C64.3935 34.8368 68.6374 41.75 72.292 44.0634C74.0759 45.1773 73.1479 47.2456 71.5176 48.6767C75.0032 51.4541 78.4181 54.7802 82.2548 56.8777C82.6627 55.3155 86.2743 53.9129 89.1698 58.7578C91.039 61.9108 95.0439 71.2528 93.4421 74.4058C90.87 79.4973 84.3643 79.0056 79.5282 83.3872C76.5773 77.9209 70.6755 76.5317 64.7024 75.6502C67.1339 73.7843 69.6069 72.1066 72.4741 72.3233C68.8341 71.2528 65.2079 73.5242 61.5687 75.2019C51.8717 79.6705 42.4982 73.3938 40.4739 62.8794C40.039 71.1666 44.465 78.109 51.3516 79.9741C39.1533 92.8896 41.3036 109.362 51.0981 117.432C78.5594 122.985 104.418 101.422 104.418 72.3233C104.418 54.3612 94.4116 38.8137 79.8101 31.2498C79.5428 34.1569 77.9971 37.2664 73.0641 40.9831C70.5204 38.7844 67.6817 35.112 64.3505 32.9567C69.3396 33.1014 71.6021 31.1059 72.9796 28.4147C68.6942 27.0488 64.2143 26.3629 59.7308 26.3629C58.1865 26.3629 56.6415 26.4438 55.1038 26.6073Z" fill="#14142B"/>
<path d="M51.3516 79.9735C32.6185 99.8164 47.7401 128.048 72.418 121.308C44.1846 122.58 46.981 89.5771 64.8852 80.1909C71.3217 81.0875 77.9541 82.2307 81.1453 88.1303C85.9654 83.7637 92.4718 84.2404 95.0577 79.1489C96.0979 77.1106 94.7773 72.4681 93.217 68.591C93.8354 70.9786 94.0736 73.1765 93.442 74.4052C90.8699 79.4967 84.3643 79.005 79.5282 83.3866C76.5773 77.9202 70.6755 76.5311 64.7024 75.6495C67.1339 73.7837 69.6069 72.106 72.474 72.3227C68.8341 71.2522 65.2079 73.5236 61.5686 75.2013C51.8717 79.6699 42.4982 73.3932 40.4739 62.8787C40.039 71.166 44.465 78.1084 51.3516 79.9735Z" fill="#262338"/>
<path d="M46.6267 42.3333L53.9481 40.9619C52.1635 26.2097 70.36 22.6667 63.4378 9.00001C63.4378 22.6667 44.2245 22.4853 46.6267 42.3333Z" fill="#14142B"/>
</svg>
