<svg width="24" height="24" viewBox="0 0 24 24" fill="none" xmlns="http://www.w3.org/2000/svg">
<rect x="3" y="11" width="18" height="12" rx="2" stroke="#FCFCFC" stroke-width="2"/>
<path d="M6 5.99988C6 6.55216 6.44772 6.99988 7 6.99988C7.55228 6.99988 8 6.55216 8 5.99988H6ZM12 0.999878V-0.00012207V0.999878ZM8 5.99988C8 4.93901 8.42143 3.9216 9.17157 3.17145L7.75736 1.75724C6.63214 2.88246 6 4.40858 6 5.99988H8ZM9.17157 3.17145C9.92172 2.42131 10.9391 1.99988 12 1.99988V-0.00012207C10.4087 -0.00012207 8.88258 0.632019 7.75736 1.75724L9.17157 3.17145ZM12 1.99988C13.0609 1.99988 14.0783 2.42131 14.8284 3.17145L16.2426 1.75724C15.1174 0.632019 13.5913 -0.00012207 12 -0.00012207V1.99988ZM14.8284 3.17145C15.5786 3.9216 16 4.93901 16 5.99988H18C18 4.40858 17.3679 2.88246 16.2426 1.75724L14.8284 3.17145ZM16 5.99988V11H18V5.99988H16Z" fill="#D9DBE9"/>
</svg>
