<svg width="26" height="25" viewBox="0 0 26 25" fill="none" xmlns="http://www.w3.org/2000/svg">
<circle cx="13" cy="12.6364" r="4" stroke="#6E7191" stroke-width="2"/>
<path d="M11.2844 2.49928C12.061 1.20331 13.939 1.20332 14.7156 2.49928L15.4213 3.67705C15.8742 4.43284 16.7684 4.80321 17.6231 4.58903L18.9549 4.25527C20.4204 3.88802 21.7483 5.21593 21.3811 6.68145L21.0473 8.0133C20.8331 8.86798 21.2035 9.76213 21.9593 10.215L23.1371 10.9208C24.433 11.6974 24.433 13.5753 23.1371 14.3519L21.9593 15.0577C21.2035 15.5106 20.8331 16.4047 21.0473 17.2594L21.3811 18.5913C21.7483 20.0568 20.4204 21.3847 18.9549 21.0174L17.6231 20.6837C16.7684 20.4695 15.8742 20.8399 15.4213 21.5957L14.7156 22.7734C13.939 24.0694 12.061 24.0694 11.2844 22.7734L10.5787 21.5957C10.1258 20.8399 9.23162 20.4695 8.37695 20.6837L7.04509 21.0174C5.57958 21.3847 4.25166 20.0568 4.61892 18.5913L4.95268 17.2594C5.16686 16.4047 4.79649 15.5106 4.04069 15.0577L2.86293 14.3519C1.56696 13.5753 1.56696 11.6974 2.86293 10.9208L4.0407 10.215C4.79649 9.76213 5.16686 8.86798 4.95268 8.0133L4.61892 6.68145C4.25166 5.21593 5.57958 3.88802 7.0451 4.25527L8.37695 4.58903C9.23162 4.80321 10.1258 4.43284 10.5787 3.67705L11.2844 2.49928Z" stroke="#6E7191" stroke-width="2"/>
</svg>
