<svg width="26" height="24" viewBox="0 0 26 24" fill="none" xmlns="http://www.w3.org/2000/svg">
<path d="M9.40401 13.606H4.40001L3.57201 16H0.92601L5.44401 3.418H8.37801L12.896 16H10.232L9.40401 13.606ZM8.72001 11.59L6.90201 6.334L5.08401 11.59H8.72001Z" fill="#FCFCFC"/>
<path d="M19.1908 5.866C19.9348 5.866 20.5888 6.016 21.1528 6.316C21.7168 6.604 22.1608 6.982 22.4848 7.45V6.028H25.0228V16.072C25.0228 16.996 24.8368 17.818 24.4648 18.538C24.0928 19.27 23.5348 19.846 22.7908 20.266C22.0468 20.698 21.1468 20.914 20.0908 20.914C18.6748 20.914 17.5108 20.584 16.5988 19.924C15.6988 19.264 15.1888 18.364 15.0688 17.224H17.5708C17.7028 17.68 17.9848 18.04 18.4168 18.304C18.8608 18.58 19.3948 18.718 20.0188 18.718C20.7508 18.718 21.3448 18.496 21.8008 18.052C22.2568 17.62 22.4848 16.96 22.4848 16.072V14.524C22.1608 14.992 21.7108 15.382 21.1348 15.694C20.5708 16.006 19.9228 16.162 19.1908 16.162C18.3508 16.162 17.5828 15.946 16.8868 15.514C16.1908 15.082 15.6388 14.476 15.2308 13.696C14.8348 12.904 14.6368 11.998 14.6368 10.978C14.6368 9.97 14.8348 9.076 15.2308 8.296C15.6388 7.516 16.1848 6.916 16.8688 6.496C17.5648 6.076 18.3388 5.866 19.1908 5.866ZM22.4848 11.014C22.4848 10.402 22.3648 9.88 22.1248 9.448C21.8848 9.004 21.5608 8.668 21.1528 8.44C20.7448 8.2 20.3068 8.08 19.8388 8.08C19.3708 8.08 18.9388 8.194 18.5428 8.422C18.1468 8.65 17.8228 8.986 17.5708 9.43C17.3308 9.862 17.2108 10.378 17.2108 10.978C17.2108 11.578 17.3308 12.106 17.5708 12.562C17.8228 13.006 18.1468 13.348 18.5428 13.588C18.9508 13.828 19.3828 13.948 19.8388 13.948C20.3068 13.948 20.7448 13.834 21.1528 13.606C21.5608 13.366 21.8848 13.03 22.1248 12.598C22.3648 12.154 22.4848 11.626 22.4848 11.014Z" fill="#FCFCFC"/>
</svg>
