<svg width="512" height="512" viewBox="0 0 512 512" fill="none" xmlns="http://www.w3.org/2000/svg">
<g clip-path="url(#clip0_3933_42724)">
<circle cx="256.144" cy="256" r="256" fill="#202020"/>
<path d="M205.553 171.875C211.435 161.687 218.268 157.443 225.206 157.031C239.278 156.1 270.74 179.271 260.786 193.03L279.433 225.56C291.346 235.544 303.41 243.407 315.771 248.629C313.461 258.302 318.84 261.769 324.266 265.181C317.029 252.511 331.201 245.474 338.839 258.045C346.73 269.112 348.843 280.596 344.117 289.543C337.13 302.939 318.384 312.867 309.889 325.333C327.184 309.663 350.45 311.422 359.649 293.213C365.377 281.937 351.054 248.527 344.37 237.251C334.015 219.925 321.099 224.941 319.64 230.528C305.919 223.027 293.706 211.131 281.241 201.199C287.071 196.081 290.39 188.684 284.01 184.7C270.94 176.427 255.763 151.704 236.061 146.891C234.099 146.406 232.101 146.143 230.116 146.143C219.847 146.143 209.804 153.108 205.553 171.875" fill="#4E4B66"/>
<path d="M239.177 467C254.648 467 269.729 464.922 284.023 461.067C196.026 484.721 142.239 383.972 209.122 313.126C184.493 306.456 168.665 281.628 170.22 251.991C37.3351 349.434 100.362 467 239.177 467V467ZM284.049 461.059C284.187 461.022 284.323 460.987 284.461 460.949C284.325 460.984 284.185 461.024 284.049 461.059ZM284.023 461.067C284.034 461.065 284.039 461.062 284.049 461.059C284.041 461.062 284.031 461.065 284.023 461.067Z" fill="#C19CFC"/>
<path d="M255.609 144.979C261.343 148.703 266.718 153.668 271.693 158.684C318.285 148.496 288.832 103.392 313.057 85.7573C282.45 96.4113 301.699 146.373 255.609 144.979" fill="#C19CFC"/>
<path d="M179.369 181.547L205.553 171.874C199.17 119.117 271.745 97.7041 247.218 45C246.163 104.685 173.487 106.031 179.369 181.547Z" fill="#C19CFC"/>
<path d="M245.661 296.06C258.676 290.06 271.644 281.937 284.661 285.765C270.385 276.406 252.848 280.905 235.154 282.146C211.383 283.8 187.26 281.73 170.22 251.991C177.46 289.593 210.982 312.041 245.661 296.06" fill="#C19CFC"/>
<path d="M236.111 104.583C221.282 124.446 202.135 143.687 205.553 171.874C210.628 149.477 223.95 143.891 236.061 146.89C255.763 151.703 270.94 176.426 284.01 184.699C290.39 188.683 287.071 196.08 281.241 201.198C293.706 211.13 305.919 223.026 319.64 230.527C321.099 224.94 334.015 219.924 344.37 237.251C351.055 248.527 365.377 281.936 359.649 293.212C350.45 311.421 327.184 309.662 309.889 325.332C299.336 305.783 278.229 300.815 256.868 297.662C265.564 290.989 274.408 284.99 284.661 285.764C271.644 281.936 258.676 290.059 245.661 296.059C210.982 312.04 177.46 289.593 170.22 251.99C168.665 281.628 184.493 306.456 209.122 313.126C142.127 384.09 196.206 485.053 284.461 460.949C359.75 440.362 415.288 369.763 415.288 285.764C415.288 211.286 371.609 147.306 309.188 119.427C312.054 135.926 315.672 151.855 286.772 173.683C277.675 165.82 267.523 152.687 255.61 144.979C282.499 145.807 287.123 129.151 292.451 113.014C275.283 107.403 257.36 104.554 239.346 104.554C238.268 104.554 237.189 104.564 236.111 104.583V104.583ZM234.855 193.753C238.171 194.423 241.54 197.217 244.606 200.372C249.581 205.493 254.307 206.375 260.335 200.994L279.433 225.559L260.786 193.029C260.536 195.616 258.475 196.235 255.964 196.08C251.593 195.804 246.078 192.667 240.292 192.664C238.497 192.664 236.676 192.967 234.855 193.753ZM324.266 265.18C327.333 259.853 331.501 256.387 338.839 258.044C336.021 253.403 332.311 251.435 329.117 251.435C323.654 251.435 319.7 257.186 324.266 265.18" fill="#C19CFC"/>
<path d="M222.541 122.273C211.935 136.598 203.19 152.016 205.553 171.876C210.628 149.479 223.95 143.892 236.061 146.892C255.763 151.705 270.94 176.428 284.01 184.701C290.39 188.685 287.071 196.082 281.241 201.2C293.706 211.132 305.919 223.028 319.64 230.529C321.099 224.942 334.015 219.926 344.37 237.252C351.055 248.528 365.377 281.938 359.649 293.214C350.45 311.423 327.184 309.664 309.889 325.334C299.336 305.785 278.229 300.817 256.868 297.664C265.564 290.991 274.408 284.992 284.661 285.766C271.644 281.938 258.676 290.061 245.661 296.061C210.982 312.042 177.46 289.595 170.22 251.992C168.665 281.63 184.493 306.458 209.122 313.128C165.497 359.317 173.187 418.228 208.215 447.088C306.424 466.948 398.902 389.831 398.902 285.766C398.902 221.529 363.116 165.927 310.897 138.877C309.941 149.273 304.413 160.393 286.772 173.685C277.675 165.822 267.523 152.689 255.61 144.981C273.452 145.498 281.543 138.362 286.469 128.737C271.144 123.853 255.122 121.4 239.088 121.4C233.565 121.4 228.04 121.689 222.541 122.273" fill="#202020"/>
<path d="M209.122 313.126C142.127 384.09 196.206 485.053 284.461 460.949C183.491 465.498 193.491 347.471 257.522 313.903C280.54 317.11 304.259 321.198 315.672 342.297C332.91 326.681 356.179 328.386 365.427 310.177C369.147 302.887 364.424 286.285 358.844 272.419C361.055 280.958 361.907 288.818 359.649 293.212C350.45 311.421 327.184 309.662 309.889 325.332C299.336 305.783 278.229 300.815 256.868 297.662C265.564 290.99 274.408 284.99 284.661 285.764C271.644 281.936 258.676 290.059 245.661 296.059C210.982 312.04 177.46 289.593 170.22 251.99C168.665 281.628 184.493 306.456 209.122 313.126" fill="#262338"/>
<path d="M193.144 176.5L212.644 169.5C206.262 116.742 277.101 108.181 252.345 59.3049C252.345 108.181 184.553 105.518 193.144 176.5Z" fill="#202020"/>
</g>
<defs>
<clipPath id="clip0_3933_42724">
<rect width="512" height="512" fill="white"/>
</clipPath>
</defs>
</svg>
